<?xml version="1.0" standalone="no"?>
<!DOCTYPE svg PUBLIC "-//W3C//DTD SVG 20010904//EN"
 "http://www.w3.org/TR/2001/REC-SVG-20010904/DTD/svg10.dtd">
<svg version="1.0" xmlns="http://www.w3.org/2000/svg"
 width="193.000000pt" height="193.000000pt" viewBox="0 0 193.000000 193.000000"
 preserveAspectRatio="xMidYMid meet">
<metadata>
Created by potrace 1.11, written by Peter Selinger 2001-2013
</metadata>
<g transform="translate(0.000000,193.000000) scale(0.100000,-0.100000)"
fill="#000000" stroke="none">
<path d="M609 1914 c-9 -11 -23 -14 -44 -11 -30 5 -31 4 -27 -26 5 -34 18 -57
34 -57 6 0 7 8 3 18 -5 14 -4 15 6 5 18 -18 29 -16 29 4 0 13 3 14 12 5 20
-20 26 -14 30 33 2 36 0 45 -13 45 -9 0 -23 -7 -30 -16z"/>
<path d="M1820 1905 c0 -14 5 -34 12 -44 9 -15 9 -29 -1 -60 -9 -32 -9 -55 0
-102 11 -56 11 -61 -10 -83 -19 -20 -21 -27 -10 -44 10 -16 7 -28 -20 -76 -18
-31 -35 -56 -37 -56 -18 0 -48 26 -59 53 -12 30 -14 31 -72 28 -32 -1 -71 2
-86 8 -20 8 -26 7 -24 -2 1 -7 -8 -11 -23 -9 -16 1 -21 -1 -12 -6 9 -6 6 -12
-13 -20 -24 -11 -25 -14 -11 -28 9 -8 16 -18 17 -22 5 -62 9 -76 19 -82 15
-10 15 -21 -2 -31 -10 -6 -10 -13 -2 -26 9 -14 23 -18 65 -16 39 2 48 0 34 -6
-11 -6 -34 -10 -52 -10 -39 -1 -49 -14 -27 -35 8 -9 12 -16 8 -16 -4 0 1 -10
12 -22 19 -21 19 -21 -1 -14 -14 5 -17 4 -10 -3 13 -13 57 -2 48 12 -4 6 0 8
10 4 10 -3 17 -2 17 3 0 6 -5 10 -12 10 -6 0 -9 3 -5 6 3 3 11 3 18 -2 12 -7
56 -13 117 -16 37 -2 37 -17 1 -34 -18 -9 -102 -21 -168 -24 -2 0 1 -6 6 -12
6 -7 13 -25 17 -40 3 -16 12 -28 19 -28 9 0 8 -3 -2 -9 -11 -7 -11 -12 0 -32
7 -13 12 -27 11 -31 -1 -5 5 -8 14 -8 8 0 12 -4 9 -10 -3 -5 0 -10 7 -10 10 0
10 -2 -1 -9 -23 -14 -21 -52 5 -103 13 -26 24 -53 24 -60 0 -7 9 -30 19 -50
11 -19 17 -38 14 -41 -3 -3 -1 -11 3 -18 4 -7 9 -24 10 -38 2 -13 7 -27 13
-30 5 -4 12 -18 15 -31 15 -79 20 -90 34 -90 11 0 9 -5 -8 -20 -18 -16 -23
-30 -24 -74 0 -30 -3 -53 -6 -51 -6 4 -9 -12 -13 -65 -1 -16 -5 -30 -8 -30 -4
0 -9 -9 -12 -20 -9 -33 -9 -34 -26 -46 -13 -10 -13 -14 -2 -28 11 -14 11 -16
-3 -16 -9 0 -16 -8 -16 -20 0 -11 5 -20 12 -20 7 0 5 -5 -4 -12 -9 -7 -18 -26
-20 -43 -3 -30 -3 -30 54 -33 49 -3 57 -1 52 13 -4 10 0 15 10 15 28 0 17 18
-14 25 -36 8 -32 24 5 17 38 -7 30 15 -10 28 -19 6 -35 16 -35 21 0 6 10 7 22
3 19 -6 21 -5 11 8 -10 11 -10 21 -1 46 14 37 11 36 80 18 72 -19 69 -19 101
-17 20 1 27 6 27 21 0 16 -7 20 -34 20 -18 0 -39 7 -46 15 -26 31 19 83 61 70
19 -6 20 -3 17 51 -3 56 -4 59 -35 68 -32 8 -32 10 -30 62 1 30 7 55 12 55 6
1 19 2 30 3 19 1 20 9 23 134 l3 134 -23 -7 c-13 -4 -27 -8 -32 -9 -17 -2 -19
38 -2 69 58 112 56 87 56 591 l0 464 -55 0 c-52 0 -55 -1 -55 -25z m-190 -525
c-8 -5 -24 -10 -35 -10 -17 0 -17 2 -5 10 8 5 24 10 35 10 17 0 17 -2 5 -10z
m140 -50 c0 -5 -5 -10 -11 -10 -5 0 -7 5 -4 10 3 6 8 10 11 10 2 0 4 -4 4 -10z
m-215 -110 c3 -5 -1 -10 -9 -10 -9 0 -16 5 -16 10 0 6 4 10 9 10 6 0 13 -4 16
-10z m231 -718 c-10 -2 -22 0 -28 6 -6 6 0 7 19 4 21 -5 23 -7 9 -10z m-46
-262 c0 -5 -4 -10 -10 -10 -5 0 -10 5 -10 10 0 6 5 10 10 10 6 0 10 -4 10 -10z"/>
<path d="M1035 1861 c-11 -5 -24 -6 -28 -4 -5 3 -4 -4 2 -16 10 -17 9 -20 -4
-15 -8 4 -15 12 -15 20 0 8 -4 14 -9 14 -5 0 -7 -10 -4 -22 5 -23 5 -23 -10
-3 -16 20 -16 20 -12 -2 2 -12 8 -30 14 -40 6 -12 6 -25 0 -34 -7 -11 -9 -11
-9 4 0 21 -16 22 -24 1 -3 -8 -10 -13 -15 -9 -6 3 -7 13 -4 21 5 13 1 15 -18
9 -13 -4 -27 -13 -31 -19 -5 -7 -8 -6 -8 4 0 9 -5 7 -16 -8 -13 -18 -19 -21
-30 -11 -8 6 -14 17 -14 23 0 6 8 2 16 -9 16 -20 16 -20 9 3 -4 13 -2 22 4 22
18 0 111 43 111 52 0 13 -84 13 -105 0 -5 -4 -16 -7 -24 -9 -8 -1 -17 -5 -20
-10 -8 -10 -40 -30 -68 -43 -12 -5 -31 -18 -43 -30 -11 -11 -22 -20 -25 -20
-3 0 -9 0 -14 0 -5 0 -11 -9 -14 -20 -5 -18 3 -25 26 -21 4 0 7 -4 7 -11 0 -6
3 -8 6 -5 4 4 2 13 -4 20 -9 10 -8 14 3 14 19 0 20 -36 1 -43 -14 -5 -28 5
-103 73 -35 33 -67 37 -84 11 -23 -35 -15 -169 11 -218 27 -51 71 -67 68 -26
-1 14 -7 22 -13 20 -5 -3 -1 2 9 10 19 15 19 16 -10 17 l-29 1 30 9 c17 5 36
6 44 4 10 -4 9 1 -4 15 -16 18 -16 20 -1 20 15 0 15 3 2 28 -13 25 -13 29 0
29 8 0 16 -10 19 -21 3 -19 4 -33 6 -78 0 -17 19 -26 19 -10 0 5 7 9 16 9 14
0 15 -2 2 -11 -8 -6 -13 -18 -10 -26 5 -13 3 -13 -11 -1 -15 12 -17 11 -15
-13 2 -24 18 -38 18 -15 0 5 5 7 11 3 6 -3 7 -9 3 -13 -19 -13 -32 -48 -24
-62 11 -20 1 -35 -30 -44 -24 -7 -25 -7 -5 9 20 16 20 17 -5 14 -19 -2 -28
-13 -42 -53 -23 -64 -33 -129 -19 -120 7 3 11 -2 11 -14 0 -12 -3 -21 -8 -21
-4 0 -8 -15 -8 -32 -1 -18 -5 -41 -9 -50 -4 -11 -3 -18 5 -18 6 0 8 6 4 13 -5
9 -4 9 6 0 10 -9 10 -15 -4 -28 -9 -9 -13 -21 -10 -26 3 -6 8 -25 11 -42 3
-18 11 -36 19 -40 10 -5 12 -16 8 -29 -5 -17 -3 -19 15 -13 16 5 21 2 21 -10
0 -13 6 -16 24 -11 16 4 26 1 30 -9 3 -8 12 -15 19 -15 8 0 19 -10 26 -22 11
-22 11 -21 7 7 -2 17 -7 41 -11 53 -7 22 -6 23 14 11 11 -8 21 -23 22 -34 0
-20 0 -20 9 0 5 12 9 15 9 5 1 -11 4 -11 13 -2 15 15 28 15 28 1 0 -5 -4 -7
-10 -4 -6 4 -7 -1 -3 -11 5 -13 11 -8 31 25 13 22 30 41 37 41 16 0 25 22 18
48 -2 11 1 23 8 27 9 6 11 2 7 -13 -4 -12 -2 -22 2 -22 5 0 10 10 12 22 2 19
12 24 53 30 28 5 64 16 80 25 28 16 29 16 16 0 -9 -11 -10 -17 -2 -17 6 0 11
-9 11 -20 0 -14 6 -20 17 -18 10 2 18 -1 18 -7 0 -5 4 -16 9 -24 8 -12 11 -12
20 0 16 20 38 17 47 -6 7 -19 8 -19 8 2 1 12 6 25 12 28 7 5 10 -11 8 -49 -3
-69 10 -88 38 -52 11 14 24 22 28 18 5 -4 5 2 1 13 -7 18 -5 18 14 -2 11 -13
25 -23 30 -23 6 0 10 -7 10 -15 0 -8 -4 -15 -10 -15 -5 0 -10 -5 -10 -11 0 -8
4 -8 13 0 10 8 17 7 25 -1 9 -9 12 -9 12 1 0 7 6 11 13 8 6 -2 18 2 25 9 8 9
9 14 2 14 -6 0 -8 5 -5 10 4 6 11 7 17 4 8 -5 9 -1 4 11 -4 11 -2 22 6 26 9 6
8 13 -6 28 -19 21 -42 19 -29 -2 4 -7 0 -6 -10 2 -32 26 -4 35 47 15 16 -6 17
-4 11 17 -20 70 -20 66 4 45 11 -11 24 -16 29 -12 4 4 -2 14 -12 22 -19 13
-19 14 -2 14 13 0 16 3 9 13 -6 6 -9 22 -8 35 1 13 -4 22 -12 22 -7 0 -12 -3
-12 -7 6 -35 -15 -44 -37 -15 -22 28 -16 36 12 17 15 -9 24 -12 20 -7 -3 6 -2
14 4 17 8 5 8 11 0 20 -9 11 -7 12 8 8 16 -4 20 1 20 24 0 15 -4 33 -9 39 -6
8 -4 14 7 18 11 4 14 12 9 24 -7 15 -11 36 -14 65 -1 4 -11 12 -23 17 -13 5
-18 9 -11 9 8 1 8 7 0 27 -10 22 -17 25 -44 20 -33 -5 -33 -5 -20 22 10 21 11
37 2 70 -6 24 -15 39 -19 35 -5 -4 -6 -2 -2 4 12 21 66 -12 61 -37 -4 -19 -2
-19 33 -5 64 26 102 94 102 181 0 97 -93 154 -179 109 -34 -17 -45 -40 -31
-65 13 -24 13 -30 0 -30 -5 0 -10 9 -10 19 0 11 -4 23 -10 26 -5 3 -10 14 -10
24 0 10 -11 26 -25 35 -23 15 -25 15 -26 -1 0 -11 -3 -13 -6 -5 -4 10 -8 10
-19 1 -11 -9 -14 -8 -14 4 0 17 -63 57 -88 56 -9 0 -26 -4 -37 -8z m-267 -91
c-7 -10 -14 -18 -15 -16 -6 6 9 36 18 36 5 0 4 -9 -3 -20z m48 -42 c5 -7 3 -8
-6 -3 -10 6 -12 4 -7 -8 4 -11 2 -14 -7 -11 -8 3 -16 16 -18 29 -4 21 -2 23
13 15 10 -6 21 -15 25 -22z m-42 -50 c-18 -29 -32 10 -17 48 6 15 8 13 14 -11
5 -15 6 -32 3 -37z m-241 38 c23 -18 21 -24 -6 -19 -13 3 -24 11 -24 19 0 17
7 17 30 0z m621 -78 c-14 -20 -15 -20 -9 -3 4 11 10 31 13 45 6 24 7 24 10 3
2 -13 -4 -33 -14 -45z m155 36 c-6 -8 -7 -14 -2 -14 5 0 14 -13 20 -29 11 -31
2 -42 -35 -40 -13 0 -11 3 6 11 12 6 22 15 22 20 0 12 -14 10 -30 -4 -8 -7 -6
-3 4 10 11 12 14 22 8 22 -7 0 -11 11 -10 24 1 15 7 22 15 19 10 -4 11 -9 2
-19z m147 11 c-34 -18 -36 -18 -36 -4 0 5 5 7 10 4 6 -3 10 -1 10 4 0 6 10 11
23 11 20 0 20 -1 -7 -15z m-232 -10 c-4 -8 -8 -15 -10 -15 -2 0 -4 7 -4 15 0
8 4 15 10 15 5 0 7 -7 4 -15z m-514 -75 c1 -39 2 -43 14 -28 15 20 27 14 20
-10 -5 -15 -4 -15 6 0 6 10 17 15 26 11 11 -4 12 -8 2 -20 -14 -17 -18 -53 -6
-53 4 0 8 -4 8 -10 0 -13 -37 -13 -42 1 -2 7 -12 7 -30 0 -23 -9 -26 -8 -21 6
4 9 -1 22 -13 30 -18 14 -18 15 4 8 16 -4 22 -2 22 8 0 9 -4 17 -10 19 -5 2
-12 19 -15 38 -4 27 -3 30 4 15 l10 -20 2 20 c1 11 1 29 1 40 -2 16 0 17 8 5
5 -8 10 -35 10 -60z m17 48 c-3 -8 -6 -5 -6 6 -1 11 2 17 5 13 3 -3 4 -12 1
-19z m453 -28 c-16 -30 -22 -19 -7 13 6 14 13 22 15 17 2 -5 -2 -19 -8 -30z
m-129 -21 c-5 -13 -10 -19 -10 -12 -1 15 10 45 15 40 3 -2 0 -15 -5 -28z m75
10 c5 1 9 -2 9 -6 1 -5 9 -22 18 -40 18 -34 23 -58 7 -33 -8 13 -10 12 -10 -3
0 -11 -4 -15 -11 -11 -7 4 -19 -3 -28 -15 -15 -20 -18 -20 -36 -6 -17 13 -18
16 -5 26 13 9 12 10 -4 5 -13 -5 -17 -2 -12 9 3 8 1 15 -4 15 -6 0 -10 5 -10
10 0 14 27 12 34 -2 3 -7 5 2 3 20 -2 17 0 32 5 32 4 0 8 -6 8 -14 0 -8 7 -17
16 -20 12 -4 15 -2 10 9 -15 37 -18 50 -8 37 5 -8 13 -13 18 -13z m-578 -6
c11 -11 10 -13 -5 -14 -16 0 -16 -1 2 -9 18 -8 17 -9 -7 -9 -14 -1 -33 2 -42
5 -22 8 -20 25 2 18 16 -5 16 -5 -1 9 -17 14 -16 15 10 14 15 -1 34 -8 41 -14z
m662 7 c0 -5 -4 -10 -10 -10 -5 0 -10 5 -10 10 0 6 5 10 10 10 6 0 10 -4 10
-10z m-300 -45 c-6 -15 -13 -25 -16 -23 -2 3 1 17 7 32 16 34 23 27 9 -9z
m440 9 c0 -2 -7 -4 -15 -4 -8 0 -15 4 -15 10 0 5 7 7 15 4 8 -4 15 -8 15 -10z
m-490 -26 c0 -6 -6 -5 -15 2 -8 7 -15 14 -15 16 0 2 7 1 15 -2 8 -4 15 -11 15
-16z m174 7 c3 -8 1 -15 -4 -15 -6 0 -10 7 -10 15 0 8 2 15 4 15 2 0 6 -7 10
-15z m-107 -17 c-3 -8 -6 -5 -6 6 -1 11 2 17 5 13 3 -3 4 -12 1 -19z m342 4
c8 -14 6 -19 -5 -19 -7 0 -14 9 -14 19 0 10 2 18 5 18 2 0 9 -8 14 -18z m-429
-13 c0 -6 -4 -7 -10 -4 -5 3 -10 11 -10 16 0 6 5 7 10 4 6 -3 10 -11 10 -16z
m44 -33 c-3 -14 -13 -31 -22 -38 -10 -8 -13 -9 -9 -1 4 6 3 14 -3 18 -5 3 -10
12 -10 18 0 7 7 3 15 -7 15 -20 15 -20 17 0 0 10 0 30 -1 44 -1 21 0 23 9 8 6
-10 8 -28 4 -42z m126 34 c0 -5 -5 -10 -11 -10 -5 0 -7 5 -4 10 3 6 8 10 11
10 2 0 4 -4 4 -10z m-180 -32 c0 -6 -6 -5 -15 2 -8 7 -15 14 -15 16 0 2 7 1
15 -2 8 -4 15 -11 15 -16z m141 -2 c5 3 9 1 9 -5 0 -15 -14 -21 -29 -11 -8 4
-10 13 -5 21 6 10 9 10 12 1 2 -7 8 -10 13 -6z m296 -8 c-3 -8 -6 -5 -6 6 -1
11 2 17 5 13 3 -3 4 -12 1 -19z m-202 -30 c-4 -47 -3 -45 -21 -52 -15 -6 -15
-4 -3 10 15 19 20 64 6 64 -4 0 -5 5 -2 10 12 19 23 1 20 -32z m235 38 c0 -3
-4 -8 -10 -11 -5 -3 -10 -1 -10 4 0 6 5 11 10 11 6 0 10 -2 10 -4z m-307 -31
c-3 -9 -8 -14 -10 -11 -3 3 -2 9 2 15 9 16 15 13 8 -4z m-198 -5 c-3 -5 -10
-10 -16 -10 -5 0 -9 5 -9 10 0 6 7 10 16 10 8 0 12 -4 9 -10z m109 -49 c-5 -6
-34 20 -34 30 0 5 8 1 18 -8 10 -10 17 -20 16 -22z m121 29 c3 -5 -1 -10 -10
-10 -9 0 -13 5 -10 10 3 6 8 10 10 10 2 0 7 -4 10 -10z m-342 -15 c-3 -9 -8
-14 -10 -11 -3 3 -2 9 2 15 9 16 15 13 8 -4z m244 -7 c-3 -8 -6 -5 -6 6 -1 11
2 17 5 13 3 -3 4 -12 1 -19z m423 -18 c-19 -13 -30 -13 -30 0 0 6 10 10 23 10
18 0 19 -2 7 -10z m-506 -38 c2 -20 0 -29 -7 -25 -6 4 -8 0 -4 -11 4 -9 3 -15
-2 -12 -5 3 -12 -19 -16 -49 -8 -66 -20 -78 -22 -22 -1 28 6 54 24 84 14 24
20 43 14 43 -6 0 -8 7 -4 15 8 21 12 15 17 -23z m156 14 c12 -16 12 -18 1 -11
-11 6 -13 3 -9 -13 4 -12 2 -22 -4 -22 -6 0 -8 11 -6 25 3 14 1 25 -4 25 -5 0
-6 5 -3 11 4 6 8 9 9 7 1 -2 8 -12 16 -22z m19 -57 c-13 -26 -23 -18 -14 10 3
12 11 19 16 16 5 -4 5 -14 -2 -26z m-399 0 c0 -5 -9 -9 -20 -9 -13 0 -18 5
-14 14 6 15 34 11 34 -5z m446 -11 c4 -6 3 -8 -3 -5 -6 4 -13 -2 -16 -13 -3
-11 -1 -20 5 -20 5 0 6 -5 3 -10 -4 -6 -10 -8 -15 -5 -5 3 -5 -8 0 -25 8 -28
6 -34 -12 -31 -4 0 -5 -6 -2 -14 4 -8 2 -15 -3 -15 -16 0 -10 113 7 133 17 20
26 21 36 5z m64 -8 c6 -11 7 -20 2 -20 -6 0 -12 9 -15 20 -3 11 -3 20 -1 20 2
0 8 -9 14 -20z m46 -42 c12 -5 30 -8 40 -6 11 2 25 -3 31 -12 10 -12 14 -12
21 -2 7 10 13 8 27 -8 11 -12 13 -20 6 -20 -7 0 -9 -5 -5 -11 5 -9 -1 -10 -22
-5 l-29 6 25 -15 25 -16 -34 7 c-43 8 -140 42 -123 43 6 1 12 6 12 12 0 6 -9
9 -20 6 -11 -3 -18 -1 -14 4 3 5 1 9 -4 9 -6 0 -12 6 -15 13 -6 15 44 12 79
-5z m-426 -18 c-13 -9 -13 -11 0 -20 12 -8 11 -10 -7 -10 -20 0 -20 2 -10 30
8 20 15 26 22 19 7 -7 5 -13 -5 -19z m327 -12 c-3 -8 -6 -5 -6 6 -1 11 2 17 5
13 3 -3 4 -12 1 -19z m-371 -10 c4 -7 3 -8 -4 -4 -7 4 -12 3 -12 -2 0 -17 -56
-32 -69 -19 -8 8 -11 8 -11 -1 0 -10 9 -15 30 -14 3 0 21 3 40 6 l35 6 -38
-15 c-28 -10 -44 -12 -58 -4 -13 6 -19 6 -19 -1 0 -5 -5 -10 -12 -10 -9 0 -9
3 0 12 10 10 8 15 -9 23 -20 11 -19 12 8 12 34 1 83 10 91 18 9 8 20 6 28 -7z
m71 -20 c-3 -8 -6 -5 -6 6 -1 11 2 17 5 13 3 -3 4 -12 1 -19z m333 2 c-13 -8
-12 -10 4 -10 11 0 17 -3 13 -6 -3 -3 -15 -3 -28 1 -17 6 -19 9 -8 16 8 5 19
9 24 9 6 0 3 -5 -5 -10z m-326 -60 c4 0 4 6 1 13 -4 6 1 3 9 -7 19 -24 23 -67
4 -48 -18 18 -51 15 -44 -3 4 -12 2 -14 -11 -6 -23 12 -27 69 -5 74 9 2 22 -2
28 -10 6 -7 14 -13 18 -13z m362 9 c8 -6 11 -16 8 -21 -7 -12 14 -28 36 -28
11 0 11 3 2 12 -18 18 -15 26 11 26 12 0 31 -12 41 -26 18 -23 18 -24 1 -14
-14 7 -22 6 -32 -3 -16 -16 -52 -8 -77 17 -12 14 -25 18 -40 13 -57 -18 -65
-18 -61 1 2 11 4 24 4 31 1 15 88 8 107 -8z m104 11 c8 -5 11 -10 5 -10 -5 0
-17 5 -25 10 -8 5 -10 10 -5 10 6 0 17 -5 25 -10z m-561 -14 c-2 -2 -15 -9
-29 -15 -24 -11 -24 -11 -6 3 16 13 49 24 35 12z m595 -23 c19 -9 37 -22 40
-30 6 -15 -10 -17 -27 -3 -7 6 -23 19 -37 30 -31 24 -22 25 24 3z m-674 -32
c-6 -16 -9 -34 -6 -39 3 -6 -3 -21 -14 -33 -20 -25 -20 -25 -24 24 -1 6 -5 15
-11 19 -6 5 -6 8 1 8 7 0 15 11 18 24 3 14 14 26 24 28 25 6 26 2 12 -31z m70
-11 c0 -5 -11 -12 -25 -16 -26 -6 -35 -39 -13 -46 9 -3 7 -15 -6 -42 -12 -26
-22 -36 -33 -32 -8 3 -22 6 -31 7 -11 0 -12 2 -4 6 6 2 12 11 12 19 0 9 4 13
9 10 5 -4 12 0 15 6 3 7 3 3 0 -9 -3 -13 -1 -23 4 -23 15 0 21 26 15 63 -5 34
4 44 55 66 1 1 2 -3 2 -9z m578 0 c4 0 8 -12 9 -26 1 -19 -2 -23 -10 -15 -17
17 -31 13 -17 -4 20 -24 -5 -17 -28 8 -25 26 -19 42 9 26 18 -9 29 4 12 14 -5
2 -2 2 5 0 8 -1 17 -3 20 -3z m-545 -17 c-11 -31 -15 -35 -23 -23 -5 7 -3 19
3 26 17 19 27 17 20 -3z m77 13 c0 -2 -7 -7 -16 -10 -8 -3 -12 -2 -9 4 6 10
25 14 25 6z m311 -22 c14 -17 21 -56 8 -48 -4 2 -12 -3 -17 -12 -6 -11 -11
-13 -16 -5 -4 6 -2 11 5 11 7 0 0 14 -17 31 l-29 32 28 -18 c23 -15 27 -15 27
-2 0 9 -8 18 -17 20 -15 4 -15 5 -2 6 9 0 22 -6 30 -15z m40 -2 c-7 -2 -18 1
-23 6 -8 8 -4 9 13 5 13 -4 18 -8 10 -11z m24 -22 c3 -6 -4 -10 -17 -10 -18 0
-20 2 -8 10 19 12 18 12 25 0z m-348 -6 c-3 -3 -12 -4 -19 -1 -8 3 -5 6 6 6
11 1 17 -2 13 -5z m-32 -43 c-3 -6 -11 -11 -16 -11 -5 0 -4 6 3 14 14 16 24
13 13 -3z m23 -21 c-12 -17 -23 -28 -26 -26 -6 7 18 46 29 46 6 0 7 5 3 12 -4
7 -3 8 4 4 8 -5 5 -16 -10 -36z m402 29 c0 -5 5 -7 10 -4 6 3 10 -1 10 -9 0
-21 -3 -20 -25 4 -10 11 -13 20 -7 20 7 0 12 -5 12 -11z"/>
<path d="M1215 1230 c3 -5 11 -10 16 -10 6 0 7 5 4 10 -3 6 -11 10 -16 10 -6
0 -7 -4 -4 -10z"/>
<path d="M575 1040 c-3 -5 -1 -10 4 -10 6 0 11 5 11 10 0 6 -2 10 -4 10 -3 0
-8 -4 -11 -10z"/>
<path d="M340 1815 c-36 -13 -85 -24 -110 -24 -54 -2 -73 -12 -68 -37 4 -26
88 -33 108 -9 14 17 46 20 55 4 4 -5 4 -22 0 -36 -5 -20 -11 -24 -30 -21 -31
6 -64 -23 -72 -63 -8 -40 -42 -48 -77 -18 -14 12 -26 28 -26 35 0 7 -10 16
-22 20 -13 4 -36 17 -51 30 -16 13 -33 24 -38 24 -5 0 -9 -312 -9 -785 l0
-785 28 7 c48 13 145 7 177 -10 28 -15 31 -15 50 3 11 10 36 26 55 34 19 8 28
15 20 16 -13 0 -13 1 0 10 26 16 4 21 -44 9 -26 -6 -49 -9 -52 -6 -3 2 12 8
33 12 55 10 72 22 66 45 -3 11 -10 17 -16 13 -6 -4 -8 0 -4 10 4 11 -4 20 -31
31 -26 10 -31 15 -17 16 19 1 19 2 -2 10 -16 6 -20 15 -16 30 4 16 0 23 -16
27 -17 4 -19 8 -10 19 9 11 7 14 -10 14 -19 0 -20 3 -11 20 6 12 9 29 5 39 -3
9 2 39 10 67 14 45 13 50 -2 61 -16 12 -15 13 2 13 10 0 15 3 12 7 -4 3 -2 12
4 20 9 10 8 13 -2 13 -7 0 -3 10 11 26 18 18 21 27 12 33 -9 6 -7 12 8 26 15
14 17 20 8 26 -9 6 -7 10 7 15 27 10 35 23 35 61 0 25 5 32 23 35 12 2 22 10
22 18 0 8 7 20 15 27 13 11 13 12 0 12 -19 0 -50 -23 -50 -38 0 -6 -2 -11 -5
-11 -9 0 -55 44 -55 53 0 4 -6 15 -14 23 -15 14 -11 54 5 54 5 0 9 6 9 14 0 8
-22 25 -50 38 -74 35 -63 57 30 64 83 5 99 -10 54 -51 -15 -14 -22 -25 -16
-25 6 0 14 5 17 10 3 6 12 10 18 9 9 0 9 -2 0 -6 -7 -2 -13 -11 -13 -19 0 -8
-6 -14 -12 -14 -9 0 -8 -4 2 -10 13 -9 13 -11 0 -20 -13 -8 -12 -11 5 -24 21
-16 80 -22 71 -7 -3 5 2 12 12 16 16 7 15 8 -3 15 -17 7 -17 9 -2 9 19 1 24
20 5 22 -7 1 -2 4 11 8 13 3 25 14 27 22 1 9 5 27 10 40 4 13 7 32 5 42 -1 9
5 20 13 23 9 3 23 29 31 57 18 60 18 60 5 52 -16 -10 -11 27 7 47 11 13 12 18
3 18 -9 0 -10 3 -1 14 8 10 8 21 1 40 -5 15 -9 30 -9 34 4 23 -4 34 -32 44
-23 8 -27 13 -17 19 20 13 -23 11 -75 -3 -83 -22 -125 14 -97 81 12 29 62 61
95 61 9 0 19 9 22 20 3 11 12 20 20 20 8 0 11 5 8 10 -3 6 -1 10 6 10 10 0 10
3 1 12 -16 16 -15 53 3 68 8 7 26 9 43 5 22 -4 31 -2 35 9 4 9 3 16 -1 17 -66
7 -96 4 -152 -16z m-243 -201 c3 -9 -1 -22 -9 -31 -19 -19 -58 -2 -58 25 0 42
51 46 67 6z m46 -88 c4 -6 5 -22 3 -36 -4 -21 1 -28 25 -39 17 -7 29 -15 27
-17 -7 -7 -78 23 -98 41 -19 18 -27 55 -13 68 8 9 46 -2 56 -17z m161 -191 c8
-29 0 -48 -16 -39 -6 4 -14 1 -18 -6 -8 -13 -30 -6 -30 9 0 12 40 61 50 61 4
0 11 -11 14 -25z m-46 -103 c2 -7 -3 -12 -12 -12 -9 0 -16 7 -16 16 0 17 22
14 28 -4z m-138 -362 c0 -5 -6 -10 -14 -10 -8 0 -18 5 -21 10 -3 6 3 10 14 10
12 0 21 -4 21 -10z"/>
<path d="M1550 1728 c0 -21 13 -33 38 -35 26 -3 32 31 6 41 -25 10 -44 7 -44
-6z"/>
<path d="M575 1420 c-3 -5 1 -10 9 -10 9 0 16 5 16 10 0 6 -4 10 -9 10 -6 0
-13 -4 -16 -10z"/>
<path d="M454 975 c-18 -14 -18 -14 4 -8 12 3 22 9 22 14 0 12 -3 11 -26 -6z"/>
<path d="M1047 965 c3 -8 9 -12 14 -9 12 7 11 11 -5 17 -10 4 -13 1 -9 -8z"/>
<path d="M1110 966 c0 -9 5 -16 10 -16 6 0 10 4 10 9 0 6 -4 13 -10 16 -5 3
-10 -1 -10 -9z"/>
<path d="M446 943 c-11 -11 -6 -23 7 -17 8 3 20 -2 27 -11 10 -12 10 -15 -1
-15 -11 0 -11 -2 1 -10 11 -8 9 -9 -10 -5 -31 7 -90 -32 -69 -45 9 -6 8 -12
-4 -25 -10 -9 -17 -25 -17 -36 0 -12 -14 -34 -31 -51 -18 -18 -29 -38 -26 -48
2 -9 0 -25 -5 -34 -7 -12 -6 -16 4 -14 8 2 13 -8 13 -27 0 -16 5 -33 10 -37 6
-5 4 -8 -4 -8 -11 0 -12 -3 -4 -11 19 -19 45 -3 37 23 -6 22 -6 22 12 7 31
-27 114 -33 98 -8 -3 5 2 12 10 15 11 4 14 14 10 30 -4 16 -2 24 7 24 7 0 9 3
6 7 -4 3 0 17 9 30 14 23 14 25 -5 30 -12 3 -21 10 -21 15 0 6 7 7 16 4 8 -3
28 1 44 9 16 8 35 14 41 13 6 -2 14 3 16 10 3 6 -2 12 -11 12 -9 0 -16 6 -16
14 0 8 -7 16 -15 20 -8 3 -12 12 -9 21 4 8 1 15 -7 15 -7 0 -9 3 -6 7 4 3 2
12 -4 20 -9 9 -8 13 0 13 8 0 8 4 -1 14 -7 8 -15 13 -18 11 -3 -1 -16 2 -30 7
-20 7 -22 11 -10 18 8 5 13 10 10 11 -3 0 -14 2 -26 4 -12 3 -24 2 -28 -2z
m104 -89 c0 -3 -6 -4 -12 -2 -7 1 -27 -6 -45 -15 -18 -9 -42 -17 -54 -17 -22
0 -22 0 -3 15 10 8 29 15 40 15 12 0 25 7 28 15 4 13 10 14 26 5 11 -6 20 -13
20 -16z m-115 -4 c-3 -5 -10 -10 -16 -10 -5 0 -9 5 -9 10 0 6 7 10 16 10 8 0
12 -4 9 -10z m115 -14 c0 -2 -7 -9 -15 -16 -13 -11 -14 -10 -9 4 5 14 24 23
24 12z m-140 -46 c0 -5 -5 -10 -11 -10 -5 0 -7 5 -4 10 3 6 8 10 11 10 2 0 4
-4 4 -10z m37 4 c-3 -3 -12 -4 -19 -1 -8 3 -5 6 6 6 11 1 17 -2 13 -5z m117 0
c8 -3 12 -12 9 -20 -3 -8 -9 -11 -14 -8 -5 3 -9 0 -9 -5 0 -6 -10 -11 -22 -11
-21 0 -21 0 3 22 13 12 17 19 8 15 -9 -3 -22 -1 -30 4 -10 6 -7 9 13 9 14 0
33 -3 42 -6z m-65 -18 c-10 -9 -79 -14 -74 -5 4 5 22 9 42 9 20 0 34 -2 32 -4z
m-84 -76 c-20 -23 -29 -21 -19 4 3 9 13 16 22 16 13 0 12 -3 -3 -20z m-45 0
c0 -5 -8 -10 -17 -10 -15 0 -16 2 -3 10 19 12 20 12 20 0z m73 -55 c-1 -5 -10
-11 -20 -13 -14 -2 -15 -1 -4 6 11 8 10 11 -5 15 -13 4 -11 5 6 4 14 -1 24 -6
23 -12z"/>
<path d="M895 940 c3 -5 8 -10 11 -10 2 0 4 5 4 10 0 6 -5 10 -11 10 -5 0 -7
-4 -4 -10z"/>
<path d="M1136 931 c-4 -7 -5 -15 -2 -18 9 -9 19 4 14 18 -4 11 -6 11 -12 0z"/>
<path d="M868 919 c-7 -5 -25 -9 -39 -9 -15 0 -30 -7 -33 -16 -13 -35 23 -46
62 -18 28 20 35 14 36 -30 1 -43 12 -37 21 11 5 27 9 33 16 22 7 -11 9 -11 9
4 0 10 5 15 10 12 6 -3 10 -2 10 3 0 14 -76 31 -92 21z m-13 -29 c3 -5 1 -10
-4 -10 -6 0 -11 5 -11 10 0 6 2 10 4 10 3 0 8 -4 11 -10z m-35 -10 c0 -5 -4
-10 -10 -10 -5 0 -10 5 -10 10 0 6 5 10 10 10 6 0 10 -4 10 -10z"/>
<path d="M976 913 c-4 -10 -4 -14 0 -10 5 4 18 -9 31 -30 23 -38 32 -39 12 -1
-6 11 -8 22 -6 25 3 3 12 -8 21 -24 15 -28 16 -28 13 -3 -1 17 3 25 13 25 8 0
18 5 23 10 4 6 9 1 13 -11 4 -14 14 -21 30 -21 13 0 24 2 24 6 0 14 -47 36
-80 37 -19 1 -47 4 -61 8 -20 4 -29 2 -33 -11z"/>
<path d="M1252 855 c6 -14 13 -24 14 -22 6 6 -9 47 -17 47 -5 0 -3 -11 3 -25z"/>
<path d="M1444 854 c3 -7 -2 -10 -15 -7 -15 4 -18 2 -13 -11 7 -19 -7 -21 -24
-4 -7 7 -12 9 -12 5 0 -5 12 -19 28 -33 22 -20 23 -23 5 -15 -35 17 -50 12
-24 -8 13 -10 33 -16 47 -13 20 4 23 1 18 -13 -4 -10 -1 -21 7 -26 12 -7 12
-9 0 -9 -10 0 -11 -3 -2 -14 6 -8 10 -19 9 -26 -2 -7 4 -15 12 -17 12 -4 12
-3 1 5 -9 7 -10 12 -2 16 6 4 14 1 17 -8 3 -8 12 -17 19 -20 21 -8 6 23 -16
35 -24 12 -25 31 -1 22 15 -6 15 -5 -2 12 -18 18 -18 19 0 25 17 6 16 8 -6 20
-34 17 -33 16 -20 39 8 15 8 21 0 21 -6 0 -9 4 -5 10 3 5 13 6 23 3 14 -5 15
-3 5 7 -16 18 -55 21 -49 4z"/>
<path d="M637 843 c-4 -3 -7 -11 -7 -17 0 -6 5 -5 12 2 6 6 9 14 7 17 -3 3 -9
2 -12 -2z"/>
<path d="M1339 757 c7 -7 14 -8 21 -1 6 6 2 10 -12 11 -16 2 -18 -1 -9 -10z"/>
<path d="M1410 746 c0 -2 7 -7 16 -10 8 -3 12 -2 9 4 -6 10 -25 14 -25 6z"/>
<path d="M600 715 c0 -9 5 -15 11 -13 6 2 11 8 11 13 0 5 -5 11 -11 13 -6 2
-11 -4 -11 -13z"/>
<path d="M1430 684 c0 -5 5 -15 11 -21 7 -7 4 -21 -10 -46 -19 -34 -14 -56 9
-42 6 3 10 -1 10 -9 0 -9 -5 -15 -11 -13 -26 5 -17 -19 11 -30 33 -12 51 0 23
16 -16 9 -16 10 5 11 12 0 22 5 22 10 0 6 -10 15 -22 20 -19 8 -17 9 12 5 35
-6 35 -6 10 9 -20 12 -22 15 -7 16 27 0 17 34 -11 38 -12 2 -29 13 -37 25 -8
12 -15 17 -15 11z"/>
<path d="M1573 573 c-7 -2 -13 -11 -13 -19 0 -8 -4 -14 -10 -14 -5 0 -10 -5
-10 -11 0 -6 7 -9 15 -5 19 7 20 -10 1 -21 -19 -11 -21 -24 -4 -34 10 -7 10
-9 0 -9 -8 0 -10 -5 -6 -12 6 -10 5 -10 -8 0 -12 10 -18 9 -28 -3 -10 -12 -10
-19 -2 -27 14 -14 16 -68 3 -68 -5 0 -7 -9 -4 -20 3 -11 0 -20 -6 -20 -6 0
-11 -5 -11 -11 0 -7 10 -9 24 -5 14 3 37 1 52 -4 l27 -11 -17 26 c-9 14 -14
31 -10 37 4 7 3 8 -4 4 -8 -5 -12 0 -12 13 0 11 5 23 10 26 6 3 10 1 10 -4 0
-6 5 -11 11 -11 6 0 8 9 4 22 -6 17 -4 20 11 14 17 -7 17 -6 -1 14 -10 11 -14
20 -8 20 13 0 11 103 -2 113 -6 4 -4 11 5 17 16 10 4 12 -17 3z m-33 -253 c0
-5 -2 -10 -4 -10 -3 0 -8 5 -11 10 -3 6 -1 10 4 10 6 0 11 -4 11 -10z"/>
<path d="M519 563 c-1 -5 -1 -11 0 -15 0 -5 -8 -8 -19 -8 -11 0 -20 -4 -20
-10 0 -13 10 -12 40 5 14 8 19 14 12 15 -7 0 -10 5 -7 10 3 6 4 10 1 10 -3 0
-7 -3 -7 -7z"/>
<path d="M358 527 l-33 -19 32 7 c18 4 34 2 38 -4 3 -7 -2 -11 -14 -11 -11 0
-23 -4 -26 -10 -3 -5 3 -10 14 -10 14 0 19 -5 15 -15 -4 -8 -1 -15 4 -15 6 0
13 -9 17 -20 5 -16 10 -17 30 -8 18 8 21 13 12 23 -7 7 -14 11 -17 10 -4 -2
-12 6 -19 17 -11 18 -11 20 4 14 15 -5 16 -4 6 8 -10 12 -9 17 8 28 12 7 21
16 21 19 0 13 -60 3 -92 -14z"/>
<path d="M440 500 c0 -5 5 -10 11 -10 5 0 7 5 4 10 -3 6 -8 10 -11 10 -2 0 -4
-4 -4 -10z"/>
<path d="M1450 470 c0 -5 5 -10 10 -10 6 0 10 5 10 10 0 6 -4 10 -10 10 -5 0
-10 -4 -10 -10z"/>
<path d="M501 424 c0 -11 3 -14 6 -6 3 7 2 16 -1 19 -3 4 -6 -2 -5 -13z"/>
<path d="M470 409 c0 -5 5 -7 10 -4 6 3 10 8 10 11 0 2 -4 4 -10 4 -5 0 -10
-5 -10 -11z"/>
<path d="M1644 371 c1 -29 26 -70 26 -43 0 7 -6 12 -12 12 -10 0 -10 3 0 9 16
10 13 42 -4 48 -7 2 -11 -8 -10 -26z"/>
<path d="M520 376 c7 -7 13 -7 20 0 6 6 3 10 -10 10 -13 0 -16 -4 -10 -10z"/>
<path d="M1620 381 c0 -5 5 -13 10 -16 6 -3 10 -2 10 4 0 5 -4 13 -10 16 -5 3
-10 2 -10 -4z"/>
<path d="M625 370 c-4 -6 -13 -9 -20 -6 -16 6 -29 -21 -15 -29 6 -4 10 -23 10
-44 0 -21 6 -44 14 -51 8 -6 13 -17 10 -25 -3 -7 0 -16 6 -20 12 -8 40 12 40
28 0 7 -4 7 -12 -1 -18 -18 -27 -15 -21 7 5 21 29 19 48 -4 6 -6 20 -17 33
-24 12 -6 22 -20 22 -30 0 -17 -3 -18 -25 -8 -14 7 -25 15 -25 20 0 14 -18 7
-44 -20 -17 -16 -25 -34 -23 -45 3 -10 1 -18 -4 -18 -5 0 -9 9 -9 20 0 11 -4
20 -10 20 -5 0 -7 -7 -4 -14 3 -8 -4 -25 -15 -37 -12 -13 -21 -19 -21 -13 0 5
-5 2 -10 -6 -8 -12 -10 -12 -10 5 -1 18 -2 18 -10 -3 -5 -12 -15 -22 -21 -22
-17 0 -53 -44 -39 -48 6 -2 19 3 29 12 22 20 31 20 31 1 0 -13 47 -15 366 -15
l365 0 -22 32 -22 31 26 -5 c15 -3 27 -1 27 3 0 5 -6 9 -14 9 -8 0 -17 4 -20
8 -8 13 16 82 25 76 5 -3 6 2 3 10 -8 20 -24 21 -24 2 0 -18 -41 -89 -47 -82
-3 3 0 20 6 38 12 37 11 119 -1 112 -14 -9 -9 21 7 42 8 10 15 27 15 37 0 9 4
17 8 17 5 0 9 7 9 15 0 8 -6 15 -14 15 -7 0 -13 -10 -13 -22 0 -12 -7 -28 -15
-37 -8 -9 -23 -26 -34 -38 -18 -20 -19 -63 -1 -63 4 0 11 -7 14 -16 5 -12 0
-15 -22 -13 -15 2 -36 -2 -47 -8 -31 -17 -107 -14 -127 4 -17 15 -18 15 -18
-5 0 -12 -4 -22 -10 -22 -5 0 -10 6 -10 14 0 21 -20 30 -33 17 -6 -6 -21 -11
-33 -11 -17 0 -23 7 -26 28 -2 19 -8 26 -21 24 -9 -2 -20 4 -23 11 -3 8 -13
13 -23 10 -9 -2 -23 3 -30 11 -15 18 -36 22 -25 5 4 -8 0 -8 -15 0 -11 7 -21
21 -21 31 0 26 -6 25 -38 -7 l-26 -26 -9 32 c-10 39 -5 47 16 26 21 -21 27
-19 27 8 0 17 2 19 10 7 11 -18 17 -13 25 25 6 27 5 28 -8 13 -13 -16 -15 -16
-34 3 -15 15 -23 18 -28 9z m555 -146 c0 -8 -5 -12 -10 -9 -6 4 -8 11 -5 16 9
14 15 11 15 -7z m-350 -44 c0 -5 -4 -10 -10 -10 -5 0 -10 5 -10 10 0 6 5 10
10 10 6 0 10 -4 10 -10z m-140 -49 c14 -28 13 -30 -20 -29 -35 1 -43 9 -34 32
8 22 41 20 54 -3z m-7 -75 c4 -10 1 -13 -9 -9 -7 3 -14 9 -14 14 0 14 17 10
23 -5z"/>
<path d="M1606 351 c5 -18 3 -22 -7 -15 -9 5 -8 0 3 -18 20 -31 20 -71 0 -63
-10 4 -12 0 -7 -12 4 -10 10 -26 12 -35 8 -27 19 -22 37 16 21 44 20 72 -1 94
-10 10 -24 27 -31 38 -11 18 -12 17 -6 -5z"/>
<path d="M1270 331 c0 -17 4 -22 16 -17 12 5 15 2 12 -12 -4 -13 1 -18 19 -20
21 -2 22 0 12 19 -6 12 -9 29 -6 40 4 15 0 18 -24 16 -23 -2 -29 -7 -29 -26z"/>
<path d="M370 340 c0 -5 4 -10 10 -10 5 0 7 -7 4 -15 -4 -8 -2 -15 2 -15 12 1
50 30 41 31 -4 1 -11 2 -16 3 -5 0 -13 4 -17 9 -11 10 -24 9 -24 -3z"/>
<path d="M700 321 c0 -11 5 -23 10 -26 6 -4 10 5 10 19 0 14 -4 26 -10 26 -5
0 -10 -9 -10 -19z"/>
<path d="M734 319 c-3 -6 6 -23 22 -37 18 -17 29 -22 32 -14 3 9 9 8 25 -3 24
-17 74 -20 96 -6 9 6 23 5 37 -1 12 -6 31 -7 41 -4 17 7 16 9 -4 26 -13 10
-32 16 -43 13 -14 -4 -20 0 -20 11 0 9 -4 16 -10 16 -5 0 -10 -6 -10 -14 0 -8
-15 -19 -32 -25 -29 -11 -35 -9 -51 10 -10 12 -26 23 -35 24 -10 0 -23 4 -29
8 -6 4 -15 2 -19 -4z"/>
<path d="M420 305 c-10 -12 -9 -15 4 -15 14 0 15 -4 6 -20 -8 -14 -8 -20 0
-20 8 0 9 -11 5 -30 -4 -19 -3 -30 4 -30 6 0 11 -9 11 -20 0 -10 10 -28 22
-39 20 -19 22 -19 34 -3 10 14 9 22 -4 47 -10 16 -20 32 -24 35 -3 3 -4 18 -1
33 4 21 10 27 24 24 12 -3 16 0 12 9 -3 8 -16 14 -29 14 -14 0 -27 7 -30 15
-4 8 -10 15 -14 15 -4 0 -13 -7 -20 -15z m80 -139 c0 -3 -4 -8 -10 -11 -5 -3
-10 -1 -10 4 0 6 5 11 10 11 6 0 10 -2 10 -4z"/>
<path d="M1130 281 c0 -12 5 -21 10 -21 6 0 10 6 10 14 0 8 -4 18 -10 21 -5 3
-10 -3 -10 -14z"/>
<path d="M1293 248 c-2 -18 0 -20 7 -8 12 18 13 30 2 30 -4 0 -9 -10 -9 -22z"/>
<path d="M1510 256 c7 -7 13 -7 20 0 6 6 3 10 -10 10 -13 0 -16 -4 -10 -10z"/>
<path d="M1257 244 c-4 -4 -7 -14 -7 -23 0 -11 3 -12 11 -4 6 6 10 16 7 23 -2
6 -7 8 -11 4z"/>
<path d="M1461 207 c-12 -24 -21 -53 -21 -65 0 -30 -31 -25 -37 6 -2 6 -4 18
-5 25 -3 13 -18 27 -32 27 -4 0 -5 -7 -2 -15 3 -8 9 -22 13 -32 4 -11 3 -14
-5 -9 -7 4 -12 1 -12 -7 0 -8 -7 -17 -15 -21 -8 -3 -15 -11 -15 -18 0 -10 2
-10 9 1 11 18 18 5 26 -51 l7 -48 61 0 c45 0 63 4 73 18 19 25 17 35 -6 29
-22 -6 -25 0 -10 23 5 8 10 10 10 4 0 -6 13 -9 31 -6 36 5 57 43 30 54 -12 5
-11 7 7 7 13 1 21 5 17 10 -3 5 2 16 10 24 19 20 9 47 -17 47 -15 0 -19 -5
-15 -19 3 -14 1 -18 -9 -14 -8 3 -14 0 -14 -6 0 -6 -13 -11 -29 -11 -35 0 -52
29 -22 37 25 6 36 34 19 45 -21 13 -25 10 -47 -35z m32 -64 c-7 -2 -19 -2 -25
0 -7 3 -2 5 12 5 14 0 19 -2 13 -5z m-90 -48 c-6 -17 -23 -20 -23 -5 0 6 5 10
11 10 5 0 7 5 3 12 -4 7 -3 8 4 4 6 -4 9 -13 5 -21z"/>
<path d="M371 101 c-6 -10 -23 -24 -39 -30 -37 -15 -39 -43 -3 -39 14 2 25 9
24 15 -2 7 16 22 39 34 31 16 38 23 27 30 -22 14 -37 11 -48 -10z"/>
<path d="M140 96 c0 -2 7 -7 16 -10 8 -3 12 -2 9 4 -6 10 -25 14 -25 6z"/>
<path d="M0 54 c0 -8 5 -12 10 -9 6 4 8 11 5 16 -9 14 -15 11 -15 -7z"/>
<path d="M1825 50 c18 -8 18 -9 2 -9 -10 -1 -16 -5 -12 -10 3 -5 -3 -12 -12
-14 -10 -3 16 -5 57 -4 41 0 63 2 49 4 -15 2 -35 13 -45 24 -9 10 -27 19 -38
18 -21 0 -21 -1 -1 -9z"/>
<path d="M1250 30 c0 -5 5 -10 10 -10 6 0 10 5 10 10 0 6 -4 10 -10 10 -5 0
-10 -4 -10 -10z"/>
<path d="M390 10 l-45 -7 42 -1 c23 -1 45 3 48 8 3 6 5 9 3 8 -2 0 -23 -4 -48
-8z"/>
<path d="M1548 3 c6 -2 18 -2 25 0 6 3 1 5 -13 5 -14 0 -19 -2 -12 -5z"/>
</g>
</svg>
